<?xml version="1.0" encoding="utf-8"?>
<!-- Generator: Adobe Illustrator 19.0.0, SVG Export Plug-In . SVG Version: 6.00 Build 0)  -->
<svg version="1.0"
	 id="svg55117" xmlns:sodipodi="http://sodipodi.sourceforge.net/DTD/sodipodi-0.dtd" xmlns:inkscape="http://www.inkscape.org/namespaces/inkscape" xmlns:svg="http://www.w3.org/2000/svg" xmlns:dc="http://purl.org/dc/elements/1.1/" xmlns:cc="http://creativecommons.org/ns#" xmlns:rdf="http://www.w3.org/1999/02/22-rdf-syntax-ns#" sodipodi:docname="Mutes.svg" inkscape:version="0.92.2 5c3e80d, 2017-08-06"
	 xmlns="http://www.w3.org/2000/svg" xmlns:xlink="http://www.w3.org/1999/xlink" x="0px" y="0px" width="135px" height="380px"
	 viewBox="-382 116.8399963 135 380" enable-background="new -382 116.8399963 135 380" xml:space="preserve">
<path id="path25061" inkscape:connector-curvature="0" inkscape:export-filename="/home/vortico/src/cpp/VCV/Rack/plugins/Fundamental/res/Delay.png" inkscape:export-xdpi="100.2962" inkscape:export-ydpi="100.2962" fill="#F0F0F0" d="
	M-382,116.8399963h135v380h-135V116.8399963z"/>
<rect x="-372" y="204.2500305" fill="#A6A6A6" width="30" height="13"/>
<rect x="-372" y="395.7500305" fill="#A6A6A6" width="30" height="13"/>
<rect x="-329.5002441" y="395.7500305" fill="#A6A6A6" width="30" height="13"/>
<rect x="-287.0004883" y="395.7500305" fill="#A6A6A6" width="30" height="13"/>
<rect x="-329.5002441" y="204.2500305" fill="#A6A6A6" width="30" height="13"/>
<rect x="-286.9997559" y="204.2500305" fill="#A6A6A6" width="30" height="13"/>
<g>
	<path fill="#212121" d="M-353.7788086,208.4746399v1.1376953h-1.2685547
		c0.2563477,0.4331055,0.3847656,0.9116211,0.3847656,1.4355469c0,0.7553711-0.2490234,1.3989258-0.7475586,1.9311523
		s-1.1577148,0.7983398-1.9770508,0.7983398c-0.7993164,0-1.4467773-0.2475586-1.9418945-0.7421875
		c-0.4956055-0.4946289-0.7431641-1.1425781-0.7431641-1.9433594c0-0.7944336,0.2426758-1.4487305,0.7280273-1.9628906
		s1.1508789-0.7714844,1.996582-0.7714844c0.2470703,0,0.5317383,0.0390625,0.8540039,0.1171875H-353.7788086z
		 M-358.6503906,211.0674133c0,0.4946289,0.1201172,0.8837891,0.3603516,1.1669922
		c0.2397461,0.2832031,0.5478516,0.4248047,0.9228516,0.4248047c0.3618164,0,0.6655273-0.1367188,0.9106445-0.4101563
		s0.3676758-0.675293,0.3676758-1.2060547c0-0.46875-0.1166992-0.847168-0.3505859-1.1352539
		c-0.2333984-0.2880859-0.5429688-0.4321289-0.9277344-0.4321289c-0.378418,0-0.6870117,0.1416016-0.925293,0.4248047
		C-358.53125,210.1836243-358.6503906,210.5727844-358.6503906,211.0674133z"/>
</g>
<path id="path25377_7_" inkscape:connector-curvature="0" fill="#333333" d="M-342,260.8953552
	c0-1.608551-1.3962402-2.9227905-3.0999146-2.9227905h-23.8001709c-1.7036743,0-3.0999146,1.3142395-3.0999146,2.9227905v34.1503906
	c0,1.6085205,1.3962402,2.9268188,3.0999146,2.9268188h23.8001709c1.7036743,0,3.0999146-1.3182983,3.0999146-2.9268188V260.8953552
	z"/>
<g>
	<path fill="#FFFFFF" d="M-360.0014648,267.848175l2.2016602-3.3618164l-1.9951172-3.0805664h1.5205078l1.2919922,2.0698242
		l1.265625-2.0698242h1.5073242l-2.0039063,3.1289063l2.2016602,3.3134766h-1.5688477l-1.4282227-2.2280273l-1.4326172,2.2280273
		H-360.0014648z"/>
</g>
<path id="path25377_8_" inkscape:connector-curvature="0" fill="#333333" d="M-299.5,260.8953552
	c0-1.608551-1.3962402-2.9227905-3.0999146-2.9227905h-23.8001709c-1.7036743,0-3.0999146,1.3142395-3.0999146,2.9227905v34.1503906
	c0,1.6085205,1.3962402,2.9268188,3.0999146,2.9268188h23.8001709c1.7036743,0,3.0999146-1.3182983,3.0999146-2.9268188V260.8953552
	z"/>
<g>
	<path fill="#FFFFFF" d="M-315.0732422,267.848175v-2.7114258l-2.3598633-3.730957h1.5249023l1.5161133,2.5488281
		l1.4853516-2.5488281h1.4985352l-2.3686523,3.7397461v2.7026367H-315.0732422z"/>
</g>
<path id="path25377_9_" inkscape:connector-curvature="0" fill="#333333" d="M-257,260.8953552
	c0-1.608551-1.3962402-2.9227905-3.0999146-2.9227905h-23.8001709c-1.7036743,0-3.0999146,1.3142395-3.0999146,2.9227905v34.1503906
	c0,1.6085205,1.3962402,2.9268188,3.0999146,2.9268188h23.8001709c1.7036743,0,3.0999146-1.3182983,3.0999146-2.9268188V260.8953552
	z"/>
<g>
	<path fill="#FFFFFF" d="M-274.6523438,267.848175v-1.1733398l3.3837891-4.1791992h-3.0009766v-1.0898438h4.7148438v1.0107422
		l-3.5283203,4.3461914h3.6650391v1.0854492H-274.6523438z"/>
</g>
<path id="path25377_3_" inkscape:connector-curvature="0" fill="#333333" d="M-342,451.3953552
	c0-1.608551-1.3962402-2.9227905-3.0999146-2.9227905h-23.8001709c-1.7036743,0-3.0999146,1.3142395-3.0999146,2.9227905v34.1503906
	c0,1.6085205,1.3962402,2.9268188,3.0999146,2.9268188h23.8001709c1.7036743,0,3.0999146-1.3182983,3.0999146-2.9268188V451.3953552
	z"/>
<g>
	<path fill="#FFFFFF" d="M-360.0014648,458.3476868l2.2016602-3.3613281l-1.9951172-3.0810547h1.5205078l1.2919922,2.0703125
		l1.265625-2.0703125h1.5073242l-2.0039063,3.1289063l2.2016602,3.3134766h-1.5688477l-1.4282227-2.2275391l-1.4326172,2.2275391
		H-360.0014648z"/>
</g>
<path id="path25377_2_" inkscape:connector-curvature="0" fill="#333333" d="M-299.5,451.3953552
	c0-1.608551-1.3962402-2.9227905-3.0999146-2.9227905h-23.8001709c-1.7036743,0-3.0999146,1.3142395-3.0999146,2.9227905v34.1503906
	c0,1.6085205,1.3962402,2.9268188,3.0999146,2.9268188h23.8001709c1.7036743,0,3.0999146-1.3182983,3.0999146-2.9268188V451.3953552
	z"/>
<g>
	<path fill="#FFFFFF" d="M-315.0732422,458.3476868v-2.7109375l-2.3598633-3.7314453h1.5249023l1.5161133,2.5488281
		l1.4853516-2.5488281h1.4985352l-2.3686523,3.7402344v2.7021484H-315.0732422z"/>
</g>
<path id="path25377_1_" inkscape:connector-curvature="0" fill="#333333" d="M-257,451.3953552
	c0-1.608551-1.3962402-2.9227905-3.0999146-2.9227905h-23.8001709c-1.7036743,0-3.0999146,1.3142395-3.0999146,2.9227905v34.1503906
	c0,1.6085205,1.3962402,2.9268188,3.0999146,2.9268188h23.8001709c1.7036743,0,3.0999146-1.3182983,3.0999146-2.9268188V451.3953552
	z"/>
<g>
	<path fill="#FFFFFF" d="M-274.6523438,458.3476868v-1.1728516l3.3837891-4.1796875h-3.0009766v-1.0898438h4.7148438v1.0107422
		l-3.5283203,4.3466797h3.6650391v1.0849609H-274.6523438z"/>
</g>
<g id="XMLID_23_">
	<path d="M-339.3457031,125.2202454v11.9970703h-2.3979492l-4.6948242-8.1035156
		c0.0058594,0.2050781,0.0117188,0.3398438,0.0175781,0.4042969c0.0234375,0.2050781,0.0351563,0.3779297,0.0351563,0.5185547
		v7.1806641h-2.1884766v-11.9970703h3.0292969l4.0810547,7.0751953c-0.0351563-0.3515625-0.0527344-0.6181641-0.0527344-0.7998047
		v-6.2753906H-339.3457031z"/>
	<path d="M-332.4331055,137.401886c-1.6157227,0-2.8657227-0.6064453-3.75-1.8193359
		c-0.8837891-1.2128906-1.3256836-2.6806641-1.3256836-4.4033203c0-1.7519531,0.4477539-3.2138672,1.3432617-4.3857422
		c0.8959961-1.171875,2.1723633-1.7578125,3.8291016-1.7578125c1.6743164,0,2.9375,0.6254883,3.7890625,1.8764648
		c0.8520508,1.2509766,1.277832,2.6821289,1.277832,4.293457c0,1.7402344-0.4389648,3.2080078-1.3173828,4.4033203
		C-329.4648438,136.8042297-330.7470703,137.401886-332.4331055,137.401886z M-332.3540039,127.3296204
		c-1.4736328,0-2.2104492,1.2949219-2.2104492,3.8847656c0,2.5957031,0.7368164,3.8935547,2.2104492,3.8935547
		c1.4267578,0,2.1401367-1.2949219,2.1401367-3.8847656C-330.2138672,128.6274719-330.9272461,127.3296204-332.3540039,127.3296204z
		"/>
	<path d="M-316.1689453,125.2202454v11.9970703h-2.7597656v-4.9482422h-3.7441406v4.9482422h-2.7597656v-11.9970703h2.7597656
		v4.6757813h3.7441406v-4.6757813H-316.1689453z"/>
	<path d="M-308.4453125,137.2173157l-2.9599609-9.7822266v9.7822266h-2.3554688v-11.9970703h4.3764648l2.1054688,7.1806641
		l2.215332-7.1806641h4.3896484v11.9970703h-2.8300781v-9.7822266l-3.0175781,9.7822266H-308.4453125z"/>
	<path d="M-292.3881836,125.2202454l3.7553711,11.9970703h-3.0205078l-0.7392578-2.4697266h-3.878418l-0.7524414,2.4697266
		h-2.4638672l3.8452148-11.9970703H-292.3881836z M-295.597168,132.5327454h2.5419922l-1.2597656-4.2099609L-295.597168,132.5327454
		z"/>
	<path d="M-287.3408203,125.2202454h3.6616211c1.4926758,0,2.6054688,0.206543,3.3369141,0.6196289
		c0.7319336,0.4130859,1.3876953,1.0664063,1.9667969,1.9599609c0.5795898,0.8935547,0.8696289,2.0229492,0.8696289,3.3881836
		c0,1.7167969-0.5063477,3.1508789-1.519043,4.3022461s-2.4091797,1.7270508-4.1889648,1.7270508h-4.1269531V125.2202454z
		 M-284.5810547,127.4263v7.5322266h1.1577148c1.0234375,0,1.7832031-0.3823242,2.2802734-1.1469727
		s0.7456055-1.6625977,0.7456055-2.6938477c0-0.7265625-0.1420898-1.3989258-0.425293-2.0170898
		c-0.2836914-0.6181641-0.6362305-1.0517578-1.0571289-1.3007813s-0.9267578-0.3735352-1.5170898-0.3735352H-284.5810547z"/>
</g>
<g id="XMLID_22_">
	<path d="M-322.6455078,136.967804v11.9970703h-2.8037109V136.967804H-322.6455078z"/>
</g>
<g id="XMLID_21_">
	<path d="M-315.043457,147.092804h-3.8798828v-7.3847656h0.8759766v6.6015625h3.0039063V147.092804z"/>
	<path d="M-311.2475586,147.2168274c-1.0605469,0-1.909668-0.3457031-2.5473633-1.0351563
		c-0.6381836-0.6904297-0.9570313-1.5878906-0.9570313-2.6933594c0-1.1875,0.3251953-2.1357422,0.9750977-2.8427734
		s1.534668-1.0605469,2.6542969-1.0605469c1.0327148,0,1.8642578,0.3427734,2.4951172,1.0292969
		c0.6313477,0.6875,0.9467773,1.5849609,0.9467773,2.6933594c0,1.2050781-0.3232422,2.1582031-0.9702148,2.8583984
		C-309.2973633,146.8662415-310.1630859,147.2168274-311.2475586,147.2168274z M-311.1850586,140.367218
		c-0.7856445,0-1.4238281,0.2802734-1.9140625,0.8398438s-0.7348633,1.2939453-0.7348633,2.2041016
		c0,0.9091797,0.2387695,1.6416016,0.7167969,2.1962891c0.4780273,0.5537109,1.1010742,0.8310547,1.8696289,0.8310547
		c0.8203125,0,1.4667969-0.2636719,1.9399414-0.7929688c0.4726563-0.5283203,0.7089844-1.2685547,0.7089844-2.21875
		c0-0.9755859-0.2294922-1.7285156-0.6884766-2.2607422S-310.378418,140.367218-311.1850586,140.367218z"/>
	<path d="M-300.8491211,147.092804h-1.0429688l-1.2514648-2.0703125c-0.1147461-0.1923828-0.2260742-0.3554688-0.3339844-0.4912109
		s-0.2182617-0.2470703-0.3310547-0.3320313c-0.1132813-0.0859375-0.2348633-0.1484375-0.3652344-0.1884766
		c-0.1303711-0.0390625-0.2773438-0.0595703-0.4404297-0.0595703h-0.7197266v3.1416016h-0.8759766v-7.3847656h2.2319336
		c0.3266602,0,0.628418,0.0410156,0.9047852,0.1210938c0.2763672,0.0810547,0.5161133,0.2041016,0.7197266,0.3681641
		c0.203125,0.1650391,0.3623047,0.3701172,0.4770508,0.6152344c0.1147461,0.2460938,0.171875,0.5332031,0.171875,0.8632813
		c0,0.2568359-0.0390625,0.4931641-0.1171875,0.7080078s-0.1894531,0.40625-0.3339844,0.5742188
		c-0.144043,0.1679688-0.3178711,0.3115234-0.5214844,0.4296875c-0.203125,0.1181641-0.4316406,0.2099609-0.6855469,0.2753906
		v0.0205078c0.125,0.0546875,0.2338867,0.1181641,0.3256836,0.1884766c0.0922852,0.0703125,0.1801758,0.1533203,0.2636719,0.2490234
		c0.0834961,0.0966797,0.1660156,0.2060547,0.2475586,0.3271484c0.081543,0.1220703,0.1728516,0.2636719,0.2739258,0.4248047
		L-300.8491211,147.092804z M-305.3339844,140.4912415v2.6777344h1.1889648c0.2192383,0,0.4213867-0.0322266,0.6074219-0.0976563
		s0.3466797-0.1591797,0.4824219-0.28125c0.1357422-0.1210938,0.2416992-0.2705078,0.3183594-0.4472656
		c0.0761719-0.1767578,0.1142578-0.375,0.1142578-0.5947266c0-0.3955078-0.1293945-0.703125-0.3881836-0.9248047
		c-0.2592773-0.2216797-0.6337891-0.3320313-1.1240234-0.3320313H-305.3339844z"/>
	<path d="M-295.8588867,147.092804h-3.9628906v-7.3847656h3.7958984v0.7832031h-2.9199219v2.4560547h2.7011719v0.7773438h-2.7011719
		v2.5849609h3.0869141V147.092804z"/>
	<path d="M-288.3911133,147.092804h-1.0742188l-3.8486328-5.8857422c-0.0976563-0.1474609-0.1777344-0.3017578-0.2402344-0.4638672
		h-0.03125c0.0283203,0.1582031,0.0419922,0.4960938,0.0419922,1.0146484v5.3349609h-0.8759766v-7.3847656h1.1367188
		l3.7441406,5.7939453c0.15625,0.2402344,0.2568359,0.4042969,0.3027344,0.4941406h0.0205078
		c-0.0351563-0.2128906-0.0517578-0.5751953-0.0517578-1.0869141v-5.2011719h0.8759766V147.092804z"/>
	<path d="M-281.5493164,139.914093l-4.3798828,6.3955078h4.2753906v0.7832031h-5.5849609v-0.2421875l4.34375-6.359375h-3.9941406
		v-0.7832031h5.3398438V139.914093z"/>
</g>
<g id="XMLID_3_">
	<path d="M-339.3457031,316.7207336v11.9970703h-2.3979492l-4.6948242-8.1035156
		c0.0058594,0.2050781,0.0117188,0.3398438,0.0175781,0.4042969c0.0234375,0.2050781,0.0351563,0.3779297,0.0351563,0.5185547
		v7.1806641h-2.1884766v-11.9970703h3.0292969l4.0810547,7.0751953c-0.0351563-0.3515625-0.0527344-0.6181641-0.0527344-0.7998047
		v-6.2753906H-339.3457031z"/>
	<path d="M-332.4331055,328.9023743c-1.6157227,0-2.8657227-0.6064453-3.75-1.8193359
		c-0.8837891-1.2128906-1.3256836-2.6806641-1.3256836-4.4033203c0-1.7519531,0.4477539-3.2138672,1.3432617-4.3857422
		c0.8959961-1.171875,2.1723633-1.7578125,3.8291016-1.7578125c1.6743164,0,2.9375,0.625,3.7890625,1.8759766
		c0.8520508,1.2509766,1.277832,2.6826172,1.277832,4.2939453c0,1.7402344-0.4389648,3.2080078-1.3173828,4.4033203
		C-329.4648438,328.304718-330.7470703,328.9023743-332.4331055,328.9023743z M-332.3540039,318.8301086
		c-1.4736328,0-2.2104492,1.2949219-2.2104492,3.8847656c0,2.5957031,0.7368164,3.8935547,2.2104492,3.8935547
		c1.4267578,0,2.1401367-1.2949219,2.1401367-3.8847656C-330.2138672,320.1279602-330.9272461,318.8301086-332.3540039,318.8301086z
		"/>
	<path d="M-316.1689453,316.7207336v11.9970703h-2.7597656v-4.9482422h-3.7441406v4.9482422h-2.7597656v-11.9970703h2.7597656
		v4.6757813h3.7441406v-4.6757813H-316.1689453z"/>
	<path d="M-308.4453125,328.717804l-2.9599609-9.7822266v9.7822266h-2.3554688v-11.9970703h4.3764648l2.1054688,7.1806641
		l2.215332-7.1806641h4.3896484v11.9970703h-2.8300781v-9.7822266l-3.0175781,9.7822266H-308.4453125z"/>
	<path d="M-292.3881836,316.7207336l3.7553711,11.9970703h-3.0205078l-0.7392578-2.4697266h-3.878418l-0.7524414,2.4697266
		h-2.4638672l3.8452148-11.9970703H-292.3881836z M-295.597168,324.0332336h2.5419922l-1.2597656-4.2099609L-295.597168,324.0332336
		z"/>
	<path d="M-287.3408203,316.7207336h3.6616211c1.4926758,0,2.6054688,0.2060547,3.3369141,0.6191406
		c0.7319336,0.4130859,1.3876953,1.0664063,1.9667969,1.9599609c0.5795898,0.8935547,0.8696289,2.0234375,0.8696289,3.3886719
		c0,1.7167969-0.5063477,3.1503906-1.519043,4.3017578s-2.4091797,1.7275391-4.1889648,1.7275391h-4.1269531V316.7207336z
		 M-284.5810547,318.9267883v7.5322266h1.1577148c1.0234375,0,1.7832031-0.3828125,2.2802734-1.1474609
		s0.7456055-1.6621094,0.7456055-2.6933594c0-0.7265625-0.1420898-1.3994141-0.425293-2.0175781
		c-0.2836914-0.6181641-0.6362305-1.0517578-1.0571289-1.3007813s-0.9267578-0.3730469-1.5170898-0.3730469H-284.5810547z"/>
</g>
<g id="XMLID_2_">
	<path d="M-322.6455078,328.467804v11.9970703h-2.8037109V328.467804H-322.6455078z"/>
</g>
<g id="XMLID_1_">
	<path d="M-313.5625,338.592804h-1.0429688l-1.2514648-2.0703125c-0.1147461-0.1923828-0.2260742-0.3554688-0.3339844-0.4912109
		s-0.2182617-0.2470703-0.3310547-0.3320313c-0.1132813-0.0859375-0.2348633-0.1484375-0.3652344-0.1884766
		c-0.1303711-0.0390625-0.2773438-0.0595703-0.4404297-0.0595703h-0.7197266v3.1416016h-0.8759766v-7.3847656h2.2319336
		c0.3266602,0,0.628418,0.0410156,0.9047852,0.1210938c0.2763672,0.0810547,0.5161133,0.2041016,0.7197266,0.3681641
		c0.203125,0.1650391,0.3623047,0.3701172,0.4770508,0.6152344c0.1147461,0.2460938,0.171875,0.5332031,0.171875,0.8632813
		c0,0.2568359-0.0390625,0.4931641-0.1171875,0.7080078s-0.1894531,0.40625-0.3339844,0.5742188
		c-0.144043,0.1679688-0.3178711,0.3115234-0.5214844,0.4296875c-0.203125,0.1181641-0.4316406,0.2099609-0.6855469,0.2753906
		v0.0205078c0.125,0.0546875,0.2338867,0.1181641,0.3256836,0.1884766c0.0922852,0.0703125,0.1801758,0.1533203,0.2636719,0.2490234
		c0.0834961,0.0966797,0.1660156,0.2060547,0.2475586,0.3271484c0.081543,0.1220703,0.1728516,0.2636719,0.2739258,0.4248047
		L-313.5625,338.592804z M-318.0473633,331.9912415v2.6777344h1.1889648c0.2192383,0,0.4213867-0.0322266,0.6074219-0.0976563
		s0.3466797-0.1591797,0.4824219-0.28125c0.1357422-0.1210938,0.2416992-0.2705078,0.3183594-0.4472656
		c0.0761719-0.1767578,0.1142578-0.375,0.1142578-0.5947266c0-0.3955078-0.1293945-0.703125-0.3881836-0.9248047
		c-0.2592773-0.2216797-0.6337891-0.3320313-1.1240234-0.3320313H-318.0473633z"/>
	<path d="M-309.6254883,338.7168274c-1.0605469,0-1.909668-0.3457031-2.5473633-1.0351563
		c-0.6381836-0.6904297-0.9570313-1.5878906-0.9570313-2.6933594c0-1.1875,0.3251953-2.1357422,0.9750977-2.8427734
		s1.534668-1.0605469,2.6542969-1.0605469c1.0327148,0,1.8642578,0.3427734,2.4951172,1.0292969
		c0.6313477,0.6875,0.9467773,1.5849609,0.9467773,2.6933594c0,1.2050781-0.3232422,2.1582031-0.9702148,2.8583984
		C-307.675293,338.3662415-308.5410156,338.7168274-309.6254883,338.7168274z M-309.5629883,331.867218
		c-0.7856445,0-1.4238281,0.2802734-1.9140625,0.8398438s-0.7348633,1.2939453-0.7348633,2.2041016
		c0,0.9091797,0.2387695,1.6416016,0.7167969,2.1962891c0.4780273,0.5537109,1.1010742,0.8310547,1.8696289,0.8310547
		c0.8203125,0,1.4667969-0.2636719,1.9399414-0.7929688c0.4726563-0.5283203,0.7089844-1.2685547,0.7089844-2.21875
		c0-0.9755859-0.2294922-1.7285156-0.6884766-2.2607422S-308.7563477,331.867218-309.5629883,331.867218z"/>
	<path d="M-304.9375,338.2939758v-1.0195313c0.1181641,0.1035156,0.2597656,0.1953125,0.425293,0.2783203
		c0.1650391,0.0820313,0.3388672,0.1513672,0.5214844,0.2080078c0.1821289,0.0566406,0.3657227,0.1005859,0.5498047,0.1318359
		c0.1845703,0.0302734,0.3549805,0.0458984,0.5112305,0.0458984c0.5385742,0,0.9414063-0.0986328,1.2070313-0.2958984
		c0.2661133-0.1972656,0.3989258-0.4814453,0.3989258-0.8525391c0-0.1982422-0.0439453-0.3720703-0.1328125-0.5195313
		s-0.2114258-0.2822266-0.3676758-0.4042969s-0.3413086-0.2382813-0.5551758-0.3505859
		c-0.2138672-0.1113281-0.4443359-0.2285156-0.690918-0.3525391c-0.2607422-0.1298828-0.5043945-0.2626953-0.7304688-0.3964844
		c-0.2255859-0.1337891-0.4223633-0.28125-0.5888672-0.4423828c-0.1669922-0.1621094-0.2983398-0.3447266-0.394043-0.5488281
		s-0.1430664-0.4433594-0.1430664-0.71875c0-0.3359375,0.074707-0.6289063,0.2241211-0.8779297
		c0.1494141-0.2480469,0.3457031-0.453125,0.5893555-0.6152344c0.2431641-0.1611328,0.5205078-0.28125,0.831543-0.3603516
		s0.628418-0.1181641,0.9516602-0.1181641c0.7373047,0,1.2744141,0.0869141,1.6113281,0.2626953v0.9726563
		c-0.4414063-0.3017578-1.0083008-0.453125-1.699707-0.453125c-0.1914063,0-0.3828125,0.0205078-0.5737305,0.0595703
		c-0.1914063,0.0390625-0.3618164,0.1035156-0.5112305,0.1933594c-0.1494141,0.0888672-0.2709961,0.2041016-0.3647461,0.3447266
		c-0.0942383,0.140625-0.1411133,0.3125-0.1411133,0.5146484c0,0.1894531,0.0356445,0.3525391,0.1069336,0.4892578
		c0.0712891,0.1376953,0.1762695,0.2626953,0.3154297,0.3759766s0.3085938,0.2236328,0.5087891,0.3300781
		c0.199707,0.1064453,0.4301758,0.2226563,0.690918,0.3496094c0.2675781,0.1308594,0.5214844,0.2675781,0.7612305,0.4121094
		s0.4501953,0.3037109,0.6308594,0.4794922c0.1806641,0.1748047,0.3242188,0.3681641,0.4301758,0.5810547
		s0.1591797,0.4570313,0.1591797,0.7314453c0,0.3642578-0.0722656,0.671875-0.2163086,0.9248047
		c-0.1445313,0.2519531-0.3388672,0.4570313-0.5839844,0.6152344s-0.527832,0.2714844-0.8476563,0.3417969
		s-0.6567383,0.1064453-1.0117188,0.1064453c-0.1181641,0-0.2641602-0.0097656-0.4379883-0.0283203
		c-0.1738281-0.0195313-0.3510742-0.046875-0.5317383-0.0830078s-0.3520508-0.0800781-0.5136719-0.1337891
		C-304.7104492,338.4189758-304.840332,338.3594055-304.9375,338.2939758z"/>
	<path d="M-299.2641602,338.2939758v-1.0195313c0.1181641,0.1035156,0.2597656,0.1953125,0.4248047,0.2783203
		c0.1650391,0.0820313,0.3388672,0.1513672,0.5214844,0.2080078s0.3662109,0.1005859,0.5507813,0.1318359
		c0.1835938,0.0302734,0.3544922,0.0458984,0.5107422,0.0458984c0.5390625,0,0.9414063-0.0986328,1.2070313-0.2958984
		c0.2666016-0.1972656,0.3994141-0.4814453,0.3994141-0.8525391c0-0.1982422-0.0449219-0.3720703-0.1328125-0.5195313
		c-0.0888672-0.1474609-0.2119141-0.2822266-0.3681641-0.4042969s-0.3417969-0.2382813-0.5556641-0.3505859
		c-0.2138672-0.1113281-0.4433594-0.2285156-0.6904297-0.3525391c-0.2607422-0.1298828-0.5039063-0.2626953-0.7304688-0.3964844
		c-0.2255859-0.1337891-0.421875-0.28125-0.5888672-0.4423828c-0.1669922-0.1621094-0.2978516-0.3447266-0.3935547-0.5488281
		s-0.1435547-0.4433594-0.1435547-0.71875c0-0.3359375,0.0742188-0.6289063,0.2236328-0.8779297
		c0.1494141-0.2480469,0.3466797-0.453125,0.5898438-0.6152344c0.2431641-0.1611328,0.5205078-0.28125,0.8320313-0.3603516
		c0.3105469-0.0791016,0.6279297-0.1181641,0.9511719-0.1181641c0.7373047,0,1.2744141,0.0869141,1.6113281,0.2626953v0.9726563
		c-0.4414063-0.3017578-1.0078125-0.453125-1.7001953-0.453125c-0.1914063,0-0.3818359,0.0205078-0.5732422,0.0595703
		s-0.3613281,0.1035156-0.5107422,0.1933594c-0.1503906,0.0888672-0.2714844,0.2041016-0.3652344,0.3447266
		s-0.140625,0.3125-0.140625,0.5146484c0,0.1894531,0.0351563,0.3525391,0.1064453,0.4892578
		c0.0712891,0.1376953,0.1767578,0.2626953,0.3154297,0.3759766c0.1396484,0.1132813,0.3085938,0.2236328,0.5087891,0.3300781
		c0.1992188,0.1064453,0.4296875,0.2226563,0.6904297,0.3496094c0.2675781,0.1308594,0.5214844,0.2675781,0.7617188,0.4121094
		s0.4501953,0.3037109,0.6308594,0.4794922c0.1806641,0.1748047,0.3242188,0.3681641,0.4306641,0.5810547
		c0.1054688,0.2128906,0.1582031,0.4570313,0.1582031,0.7314453c0,0.3642578-0.0712891,0.671875-0.2158203,0.9248047
		c-0.1445313,0.2519531-0.3388672,0.4570313-0.5839844,0.6152344s-0.5273438,0.2714844-0.8476563,0.3417969
		c-0.3193359,0.0703125-0.6572266,0.1064453-1.0117188,0.1064453c-0.1181641,0-0.2636719-0.0097656-0.4375-0.0283203
		c-0.1738281-0.0195313-0.3515625-0.046875-0.5322266-0.0830078s-0.3525391-0.0800781-0.5136719-0.1337891
		C-299.0375977,338.4189758-299.1665039,338.3594055-299.2641602,338.2939758z"/>
	<path d="M-289.3608398,338.592804h-3.8798828v-7.3847656h0.8759766v6.6015625h3.0039063V338.592804z"/>
	<path d="M-284.2504883,338.592804h-3.9628906v-7.3847656h3.7958984v0.7832031h-2.9199219v2.4560547h2.7011719v0.7773438h-2.7011719
		v2.5849609h3.0869141V338.592804z"/>
	<path d="M-277.4511719,338.592804h-1.0424805l-1.2509766-2.0703125c-0.1152344-0.1923828-0.2265625-0.3554688-0.3339844-0.4912109
		s-0.2177734-0.2470703-0.3310547-0.3320313c-0.1132813-0.0859375-0.234375-0.1484375-0.3652344-0.1884766
		c-0.1298828-0.0390625-0.2773438-0.0595703-0.4404297-0.0595703h-0.7197266v3.1416016h-0.8759766v-7.3847656h2.2314453
		c0.3271484,0,0.6289063,0.0410156,0.9052734,0.1210938c0.2763672,0.0810547,0.515625,0.2041016,0.7197266,0.3681641
		c0.203125,0.1650391,0.3623047,0.3701172,0.4765625,0.6152344c0.1152344,0.2460938,0.1728516,0.5332031,0.1728516,0.8632813
		c0,0.2568359-0.0390625,0.4931641-0.1181641,0.7080078c-0.078125,0.2148438-0.1894531,0.40625-0.3330078,0.5742188
		c-0.1445313,0.1679688-0.3183594,0.3115234-0.5214844,0.4296875c-0.2041016,0.1181641-0.4326172,0.2099609-0.6865234,0.2753906
		v0.0205078c0.1259766,0.0546875,0.234375,0.1181641,0.3261719,0.1884766
		c0.0927734,0.0703125,0.1796875,0.1533203,0.2636719,0.2490234c0.0830078,0.0966797,0.1660156,0.2060547,0.2480469,0.3271484
		c0.0810547,0.1220703,0.1728516,0.2636719,0.2734375,0.4248047L-277.4511719,338.592804z M-281.9350586,331.9912415v2.6777344
		h1.1884766c0.2197266,0,0.421875-0.0322266,0.6083984-0.0976563c0.1855469-0.0654297,0.3466797-0.1591797,0.4824219-0.28125
		c0.1347656-0.1210938,0.2412109-0.2705078,0.3173828-0.4472656c0.0771484-0.1767578,0.1152344-0.375,0.1152344-0.5947266
		c0-0.3955078-0.1298828-0.703125-0.3886719-0.9248047s-0.6337891-0.3320313-1.1240234-0.3320313H-281.9350586z"/>
</g>
<g>
	<path fill="#212121" d="M-316.8745117,215.7226868v-6.5820313c0-1.0219727,0.2548828-1.7226563,0.7646484-2.1020508
		c0.5102539-0.3793945,1.074707-0.5688477,1.6933594-0.5688477c0.625,0,1.1513672,0.171875,1.5791016,0.5151367
		s0.6416016,0.7900391,0.6416016,1.340332c0,0.3579102-0.1152344,0.6728516-0.3452148,0.9448242
		c-0.2304688,0.2719727-0.5166016,0.4501953-0.8588867,0.534668c0.5527344,0.0913086,0.9584961,0.3261719,1.2167969,0.7055664
		s0.387207,0.8017578,0.387207,1.2670898c0,0.5727539-0.1743164,1.0644531-0.5229492,1.4746094
		c-0.3491211,0.4101563-0.8242188,0.6152344-1.4267578,0.6152344c-0.6943359,0-1.2749023-0.2915039-1.7421875-0.8740234v2.7294922
		H-316.8745117z M-314.8608398,209.492218c0.4208984-0.0063477,0.75-0.105957,0.9873047-0.2978516
		c0.2368164-0.1918945,0.3549805-0.4360352,0.3549805-0.7324219c0-0.2700195-0.0942383-0.4892578-0.2836914-0.6567383
		s-0.4169922-0.2514648-0.6835938-0.2514648c-0.2304688,0-0.4267578,0.0693359-0.5898438,0.2075195
		c-0.1625977,0.1381836-0.2724609,0.3164063-0.328125,0.534668c-0.0561523,0.2182617-0.0839844,0.5371094-0.0839844,0.9570313
		v1.4746094c0,0.4428711,0.0385742,0.7983398,0.1162109,1.0668945c0.0771484,0.2685547,0.2324219,0.5004883,0.4663086,0.6958008
		c0.2333984,0.1953125,0.4868164,0.2929688,0.7602539,0.2929688c0.2631836,0,0.4833984-0.0966797,0.6611328-0.2905273
		s0.2666016-0.4418945,0.2666016-0.7446289c0-0.4428711-0.1342773-0.8022461-0.4023438-1.0791016
		s-0.6821289-0.4150391-1.2412109-0.4150391V209.492218z"/>
</g>
<g>
	<path fill="#212121" d="M-273.1582031,213.342804v2.2900391h-1.3867188v-4.0820313
		c0-0.7358398,0.0761719-1.3193359,0.2294922-1.7504883c0.1523438-0.4311523,0.4296875-0.7797852,0.8310547-1.0449219
		s0.8867188-0.3979492,1.4560547-0.3979492c0.8457031,0,1.5185547,0.2700195,2.0185547,0.8105469
		c0.5009766,0.5405273,0.7509766,1.1899414,0.7509766,1.9482422c0,0.7421875-0.2412109,1.3710938-0.7236328,1.887207
		c-0.4814453,0.5161133-1.0732422,0.7739258-1.7744141,0.7739258
		C-272.2207031,213.7773743-272.6875,213.6323547-273.1582031,213.342804z M-273.1582031,211.2236633
		c0,0.4296875,0.1103516,0.7763672,0.3310547,1.0400391c0.2197266,0.2636719,0.5195313,0.3955078,0.8974609,0.3955078
		c0.3720703,0,0.6728516-0.1474609,0.9033203-0.4418945s0.3457031-0.6811523,0.3457031-1.159668
		c0-0.4882813-0.1064453-0.8740234-0.3183594-1.1572266s-0.5175781-0.4248047-0.9150391-0.4248047
		c-0.3457031,0-0.6396484,0.1279297-0.8818359,0.3833008C-273.0371094,210.1142883-273.1582031,210.5693665-273.1582031,211.2236633
		z"/>
</g>
<g>
	<path fill="#212121" d="M-358.0483398,401.0566711l-1.2587891-0.2246094
		c0.1416016-0.5019531,0.3852539-0.8730469,0.7304688-1.1132813c0.3457031-0.2412109,0.8588867-0.3613281,1.5400391-0.3613281
		c0.6186523,0,1.0791016,0.0722656,1.3818359,0.2167969c0.3027344,0.1455078,0.5161133,0.3291016,0.6391602,0.5517578
		c0.1235352,0.2236328,0.1850586,0.6328125,0.1850586,1.2285156l-0.0146484,1.6015625
		c0,0.4550781,0.0224609,0.7919922,0.0668945,1.0078125c0.0439453,0.2167969,0.1274414,0.4482422,0.2490234,0.6962891h-1.3720703
		c-0.0361328-0.0917969-0.0805664-0.2265625-0.1333008-0.4052734c-0.0229492-0.0820313-0.0395508-0.1357422-0.0493164-0.1611328
		c-0.2368164,0.2275391-0.4902344,0.3984375-0.7602539,0.5126953c-0.2695313,0.1132813-0.5576172,0.1708984-0.8637695,0.1708984
		c-0.5395508,0-0.9648438-0.1455078-1.2758789-0.4345703c-0.3110352-0.2900391-0.4663086-0.65625-0.4663086-1.0986328
		c0-0.2929688,0.0708008-0.5546875,0.2124023-0.7841797c0.1411133-0.2294922,0.3393555-0.4052734,0.5947266-0.5273438
		c0.2548828-0.1220703,0.6225586-0.2285156,1.1030273-0.3193359c0.6479492-0.1210938,1.097168-0.2333984,1.347168-0.3369141
		v-0.1367188c0-0.2636719-0.0654297-0.4521484-0.1972656-0.5644531c-0.1313477-0.1123047-0.3798828-0.1679688-0.7451172-0.1679688
		c-0.2470703,0-0.4394531,0.0478516-0.5776367,0.1435547C-357.8510742,400.6474915-357.9628906,400.8154602-358.0483398,401.0566711
		z M-356.1928711,402.1699524c-0.1772461,0.0585938-0.4589844,0.1279297-0.84375,0.2099609
		c-0.3852539,0.0810547-0.6367188,0.1611328-0.7553711,0.2392578c-0.1806641,0.1269531-0.2714844,0.2880859-0.2714844,0.4833984
		c0,0.1914063,0.0727539,0.3574219,0.2172852,0.4980469c0.1450195,0.1396484,0.3291016,0.2099609,0.5527344,0.2099609
		c0.25,0,0.4887695-0.0820313,0.7158203-0.2441406c0.1679688-0.1240234,0.277832-0.2753906,0.3305664-0.4541016
		c0.0361328-0.1171875,0.0541992-0.3408203,0.0541992-0.6689453V402.1699524z"/>
</g>
<g>
	<path fill="#212121" d="M-316.9213867,404.7500305v-7.1582031h1.3867188v2.578125
		c0.4277344-0.4824219,0.9345703-0.7226563,1.5200195-0.7226563c0.6386719,0,1.1665039,0.2285156,1.5844727,0.6855469
		c0.4179688,0.4580078,0.6269531,1.1152344,0.6269531,1.9707031c0,0.8847656-0.2128906,1.5673828-0.6391602,2.0458984
		s-0.9433594,0.7177734-1.5522461,0.7177734c-0.2993164,0-0.5947266-0.0742188-0.8862305-0.2226563
		c-0.2910156-0.1474609-0.5419922-0.3671875-0.7524414-0.65625v0.7617188H-316.9213867z M-315.5444336,402.0449524
		c0,0.5371094,0.0854492,0.9335938,0.2568359,1.1914063c0.2397461,0.3652344,0.559082,0.546875,0.9575195,0.546875
		c0.3056641,0,0.5664063-0.1289063,0.7822266-0.3886719c0.215332-0.2578125,0.3232422-0.6660156,0.3232422-1.2226563
		c0-0.5917969-0.1088867-1.0195313-0.3256836-1.28125c-0.2172852-0.2626953-0.4956055-0.3935547-0.8344727-0.3935547
		c-0.3320313,0-0.6083984,0.1279297-0.8291016,0.3837891C-315.434082,401.1357727-315.5444336,401.523468-315.5444336,402.0449524z"
		/>
</g>
<g>
	<path fill="#212121" d="M-269.515625,401.007843l-1.3671875,0.2441406
		c-0.0458984-0.2705078-0.1503906-0.4736328-0.3134766-0.6103516s-0.3740234-0.2050781-0.6347656-0.2050781
		c-0.3447266,0-0.6210938,0.1181641-0.8261719,0.3535156c-0.2060547,0.2363281-0.3085938,0.6308594-0.3085938,1.1845703
		c0,0.6152344,0.1044922,1.0498047,0.3134766,1.3037109s0.4892578,0.3808594,0.8417969,0.3808594
		c0.2626953,0,0.4785156-0.0742188,0.6464844-0.2226563c0.1679688-0.1474609,0.2861328-0.4023438,0.3554688-0.7636719
		l1.3623047,0.2294922c-0.1416016,0.6181641-0.4130859,1.0849609-0.8144531,1.4013672
		c-0.4013672,0.3154297-0.9394531,0.4736328-1.6142578,0.4736328c-0.7666016,0-1.3779297-0.2392578-1.8339844-0.7177734
		c-0.4550781-0.4785156-0.6835938-1.1416016-0.6835938-1.9873047c0-0.8564453,0.2294922-1.5224609,0.6865234-2
		c0.4570313-0.4765625,1.0761719-0.7148438,1.8554688-0.7148438c0.6386719,0,1.1464844,0.1357422,1.5224609,0.4072266
		C-269.9511719,400.0371399-269.6806641,400.4512024-269.515625,401.007843z"/>
</g>
<g>
	<path fill="#8F8F8F" d="M-382,306.6900024c0,0,2.109375-0.2432556,5.8007813-0.4854736
		c1.8457031-0.1233215,4.0869141-0.2612915,6.6577148-0.363739c2.5708008-0.1229553,5.4711914-0.1958008,8.6352539-0.2749939
		c3.1640625-0.0406494,6.5917969-0.1080627,10.2172852-0.0408936c3.6254883,0.0594482,7.4487305,0.2983398,11.4038086,0.5170898
		c3.9550781,0.2256165,8.0419922,0.3550415,12.1948242,0.3408508c4.152832-0.0010376,8.371582-0.1518555,12.590332-0.3641052
		c4.21875-0.2013245,8.4375-0.4309082,12.590332-0.5051575c4.152832-0.0792236,8.2397461-0.1571655,12.1948242-0.2325745
		c1.9775391-0.0420227,3.9221191-0.0384827,5.8255005-0.0426331c1.9033813-0.0155029,3.765564,0.0033875,5.5783081,0.0378418
		c3.6254883,0.0362244,7.0532227,0.1356812,10.2172852,0.2257385c6.328125,0.2117615,11.6015625,0.4851379,15.2929688,0.7398987
		c1.8457031,0.1348267,3.2958984,0.2407532,4.284668,0.3129578C-247.5273438,306.6429749-247,306.6900024-247,306.6900024v0.2999878
		c0,0-0.5273438,0.0470276-1.5161133,0.1351624c-0.9887695,0.0722351-2.4389648,0.1781616-4.284668,0.3129883
		c-3.6914063,0.2547607-8.9648438,0.5281372-15.2929688,0.7398987c-3.1640625,0.0900574-6.5917969,0.1894836-10.2172852,0.2257385
		c-1.8127441,0.0344543-3.6749268,0.0533447-5.5783081,0.0378113c-1.9033813-0.0041199-3.8479614-0.0005798-5.8255005-0.0426025
		c-3.9550781-0.0754395-8.0419922-0.1533813-12.1948242-0.2325745c-4.152832-0.0742493-8.371582-0.3038635-12.590332-0.5051575
		c-4.21875-0.2122498-8.4375-0.3630676-12.590332-0.3641052c-4.152832-0.0142212-8.2397461,0.1152344-12.1948242,0.3408508
		c-3.9550781,0.2187195-7.7783203,0.4576111-11.4038086,0.5170898c-3.6254883,0.0671387-7.0532227-0.0002441-10.2172852-0.0408936
		c-3.1640625-0.0791931-6.0644531-0.1520386-8.6352539-0.2749939c-2.5708008-0.1024475-4.8120117-0.2404175-6.6577148-0.363739
		C-379.890625,307.2332458-382,306.9899902-382,306.9899902V306.6900024z"/>
</g>
</svg>
