<?xml version="1.0" encoding="utf-8"?>
<!-- Generator: Adobe Illustrator 19.0.0, SVG Export Plug-In . SVG Version: 6.00 Build 0)  -->
<svg version="1.0"
	 id="svg55117" xmlns:rdf="http://www.w3.org/1999/02/22-rdf-syntax-ns#" xmlns:dc="http://purl.org/dc/elements/1.1/" xmlns:inkscape="http://www.inkscape.org/namespaces/inkscape" xmlns:cc="http://creativecommons.org/ns#" xmlns:sodipodi="http://sodipodi.sourceforge.net/DTD/sodipodi-0.dtd" xmlns:svg="http://www.w3.org/2000/svg" inkscape:version="0.92.2 5c3e80d, 2017-08-06" sodipodi:docname="Mutes.svg"
	 xmlns="http://www.w3.org/2000/svg" xmlns:xlink="http://www.w3.org/1999/xlink" x="0px" y="0px" width="45px" height="380px"
	 viewBox="-337 116.8399963 45 380" enable-background="new -337 116.8399963 45 380" xml:space="preserve">
<path id="path25061" inkscape:export-ydpi="100.2962" inkscape:export-xdpi="100.2962" inkscape:export-filename="/home/vortico/src/cpp/VCV/Rack/plugins/Fundamental/res/Delay.png" inkscape:connector-curvature="0" fill="#F0F0F0" d="
	M-337,116.8399963h45v380h-45V116.8399963z"/>
<path id="path25377_6_" inkscape:connector-curvature="0" fill="#F0F0F0" d="M-299,159.5197906
	c0-1.608551-1.3962402-2.9228058-3.0999146-2.9228058h-23.8001709c-1.7036743,0-3.0999146,1.3142548-3.0999146,2.9228058v34.1503754
	c0,1.6085358,1.3962402,2.9268188,3.0999146,2.9268188h23.8001709c1.7036743,0,3.0999146-1.3182831,3.0999146-2.9268188V159.5197906
	z"/>
<g>
	<path fill="#212121" d="M-324.0556641,164.6025696l-1.1962891-4.9570313h1.0356445l0.7553711,3.4047852l0.9160156-3.4047852
		h1.203125l0.878418,3.4624023l0.769043-3.4624023h1.0185547l-1.2167969,4.9570313h-1.0732422l-0.9980469-3.7060547
		l-0.9946289,3.7060547H-324.0556641z"/>
	<path fill="#212121" d="M-318.15625,164.6025696v-4.9570313h1.0117188v1.9511719h1.9824219v-1.9511719h1.0117188v4.9570313
		h-1.0117188v-2.1674805h-1.9824219v2.1674805H-318.15625z"/>
	<path fill="#212121" d="M-313.1352539,164.6025696v-4.9570313h1.0117188v4.9570313H-313.1352539z"/>
	<path fill="#212121" d="M-310.0317383,164.6025696v-4.1186523h-1.4868164v-0.8383789h3.9819336v0.8383789h-1.4833984v4.1186523
		H-310.0317383z"/>
	<path fill="#212121" d="M-306.8837891,164.6025696v-4.9570313h3.715332v0.8383789h-2.7036133v1.0991211h2.515625v0.8354492
		h-2.515625v1.3491211h2.7993164v0.8349609H-306.8837891z"/>
</g>
<path id="path25377_1_" inkscape:connector-curvature="0" fill="#F16C95" d="M-299,208.0197906
	c0-1.608551-1.3962402-2.9228058-3.0999146-2.9228058h-23.8001709c-1.7036743,0-3.0999146,1.3142548-3.0999146,2.9228058v34.1503754
	c0,1.6085358,1.3962402,2.9268188,3.0999146,2.9268188h23.8001709c1.7036743,0,3.0999146-1.3182831,3.0999146-2.9268188V208.0197906
	z"/>
<g>
	<path fill="#FFFFFF" d="M-321.8525391,212.9726868v-5.0107422h1.6235352c0.6152344,0,1.0161133,0.0249023,1.203125,0.0751953
		c0.2871094,0.0751953,0.5273438,0.2387695,0.7211914,0.4902344c0.1938477,0.2519531,0.2905273,0.5771484,0.2905273,0.9760742
		c0,0.3076172-0.0556641,0.5664063-0.1674805,0.7758789s-0.253418,0.3740234-0.425293,0.4941406
		c-0.1723633,0.1191406-0.347168,0.1987305-0.5249023,0.2373047c-0.2416992,0.0478516-0.5913086,0.0717773-1.0493164,0.0717773
		h-0.659668v1.8901367H-321.8525391z M-320.8408203,208.8096008v1.421875h0.5537109
		c0.3989258,0,0.6655273-0.0263672,0.7998047-0.0786133s0.2397461-0.1342773,0.315918-0.2460938
		c0.0766602-0.1118164,0.1147461-0.2416992,0.1147461-0.3896484c0-0.1821289-0.0537109-0.3325195-0.1606445-0.4511719
		s-0.2426758-0.1923828-0.4067383-0.222168c-0.1206055-0.0229492-0.3632813-0.0341797-0.7280273-0.0341797H-320.8408203z"/>
	<path fill="#FFFFFF" d="M-317.2143555,212.9726868v-5.0107422h1.0117188v5.0107422H-317.2143555z"/>
	<path fill="#FFFFFF" d="M-315.2285156,212.9726868v-5.0107422h0.984375l2.0507813,3.3461914v-3.3461914h0.9399414v5.0107422
		h-1.0151367l-2.0200195-3.2675781v3.2675781H-315.2285156z"/>
	<path fill="#FFFFFF" d="M-310.1699219,212.9726868v-5.0107422h1.0117188v2.2250977l2.0439453-2.2250977h1.3603516
		l-1.8867188,1.9516602l1.9892578,3.059082h-1.309082l-1.3774414-2.3515625l-0.8203125,0.8374023v1.5141602H-310.1699219z"/>
</g>
<path id="path25377_2_" inkscape:connector-curvature="0" fill="#F0515C" d="M-299,256.5197754
	c0-1.6085358-1.3962402-2.9227905-3.0999146-2.9227905h-23.8001709c-1.7036743,0-3.0999146,1.3142548-3.0999146,2.9227905
	v34.1503906c0,1.608551,1.3962402,2.9268188,3.0999146,2.9268188h23.8001709c1.7036743,0,3.0999146-1.3182678,3.0999146-2.9268188
	V256.5197754z"/>
<g>
	<path fill="#FFFFFF" d="M-320.8769531,261.4721985v-5.0107422h2.1293945c0.5356445,0,0.9243164,0.0449219,1.1674805,0.1347656
		c0.2421875,0.090332,0.4365234,0.2504883,0.5825195,0.4804688s0.21875,0.4931641,0.21875,0.7895508
		c0,0.3759766-0.1103516,0.6865234-0.331543,0.9311523c-0.2211914,0.2451172-0.5512695,0.3994141-0.9912109,0.4633789
		c0.21875,0.1274414,0.3994141,0.2675781,0.5419922,0.4204102c0.1420898,0.152832,0.3339844,0.4238281,0.5756836,0.8134766
		l0.6118164,0.9775391h-1.2099609l-0.7314453-1.090332c-0.2597656-0.3896484-0.4375-0.6352539-0.5332031-0.7368164
		c-0.0957031-0.1010742-0.1972656-0.1708984-0.3041992-0.2080078c-0.1069336-0.0380859-0.2768555-0.0566406-0.5092773-0.0566406
		h-0.2050781v2.0917969H-320.8769531z M-319.8652344,258.5805969h0.7485352c0.4853516,0,0.7885742-0.0205078,0.9091797-0.0615234
		s0.215332-0.1118164,0.2836914-0.2119141s0.1025391-0.2255859,0.1025391-0.3759766
		c0-0.168457-0.0449219-0.3046875-0.1347656-0.4082031c-0.090332-0.1040039-0.2172852-0.1694336-0.3813477-0.1967773
		c-0.0820313-0.0112305-0.328125-0.0170898-0.7382813-0.0170898h-0.7895508V258.5805969z"/>
	<path fill="#FFFFFF" d="M-315.8251953,261.4721985v-5.0107422h3.715332v0.8476563h-2.7036133v1.1108398h2.515625v0.8442383
		h-2.515625v1.3637695h2.7993164v0.8442383H-315.8251953z"/>
	<path fill="#FFFFFF" d="M-311.159668,256.4614563h1.8491211c0.4169922,0,0.7348633,0.0317383,0.9536133,0.0957031
		c0.2939453,0.0864258,0.5458984,0.2402344,0.7553711,0.4614258s0.3691406,0.4916992,0.4785156,0.8120117
		c0.109375,0.3198242,0.1640625,0.7148438,0.1640625,1.184082c0,0.4125977-0.0512695,0.7680664-0.1538086,1.0664063
		c-0.1254883,0.3647461-0.3041992,0.659668-0.5366211,0.8852539c-0.175293,0.1708984-0.4125977,0.3041992-0.7109375,0.3999023
		c-0.2231445,0.0708008-0.5219727,0.105957-0.8955078,0.105957h-1.9038086V256.4614563z M-310.1479492,257.3091125v3.3188477
		h0.7553711c0.2827148,0,0.4863281-0.0161133,0.6118164-0.0478516c0.1640625-0.0410156,0.300293-0.1103516,0.4082031-0.2084961
		c0.1083984-0.0981445,0.1967773-0.2592773,0.2651367-0.4833984c0.0683594-0.2246094,0.1025391-0.5307617,0.1025391-0.9179688
		s-0.0341797-0.6845703-0.1025391-0.8920898s-0.1640625-0.3691406-0.2871094-0.4853516s-0.2792969-0.1948242-0.4682617-0.2358398
		c-0.1411133-0.0317383-0.4179688-0.0478516-0.8305664-0.0478516H-310.1479492z"/>
</g>
<path id="path25377_3_" inkscape:connector-curvature="0" fill="#A6A6A6" d="M-299,305.0197754
	c0-1.6085205-1.3962402-2.9227905-3.0999146-2.9227905h-23.8001709c-1.7036743,0-3.0999146,1.31427-3.0999146,2.9227905v34.1503906
	c0,1.608551,1.3962402,2.9268188,3.0999146,2.9268188h23.8001709c1.7036743,0,3.0999146-1.3182678,3.0999146-2.9268188V305.0197754z
	"/>
<g>
	<path fill="#FFFFFF" d="M-321.0151367,308.1308899v-0.8447266h2.1806641v1.9960938
		c-0.2119141,0.2050781-0.519043,0.3857422-0.9213867,0.5419922c-0.4018555,0.15625-0.809082,0.234375-1.2216797,0.234375
		c-0.5239258,0-0.980957-0.1103516-1.3706055-0.3300781s-0.6826172-0.5341797-0.878418-0.9433594
		s-0.2939453-0.8535156-0.2939453-1.3349609c0-0.5219727,0.109375-0.9853516,0.328125-1.3911133
		s0.5390625-0.7167969,0.9604492-0.9331055c0.3212891-0.1665039,0.7211914-0.2495117,1.199707-0.2495117
		c0.6220703,0,1.1079102,0.1303711,1.4580078,0.3911133c0.3496094,0.2612305,0.574707,0.621582,0.6748047,1.0820313
		l-1.0048828,0.1879883c-0.0708008-0.2460938-0.203125-0.4404297-0.3984375-0.5825195
		c-0.1943359-0.1425781-0.4379883-0.2138672-0.7294922-0.2138672c-0.4418945,0-0.793457,0.1401367-1.0546875,0.4204102
		c-0.2607422,0.2802734-0.3911133,0.6962891-0.3911133,1.2475586c0,0.5947266,0.1323242,1.0410156,0.3964844,1.3378906
		c0.2641602,0.2978516,0.6108398,0.4462891,1.0390625,0.4462891c0.2119141,0,0.4243164-0.0410156,0.637207-0.125
		c0.2133789-0.0830078,0.3959961-0.1835938,0.5488281-0.3017578v-0.6357422H-321.0151367z"/>
	<path fill="#FFFFFF" d="M-317.8979492,309.9726868v-5.0107422h2.1293945c0.5356445,0,0.9243164,0.0449219,1.1674805,0.1347656
		c0.2421875,0.090332,0.4365234,0.2504883,0.5825195,0.4804688s0.21875,0.4931641,0.21875,0.7895508
		c0,0.3759766-0.1103516,0.6865234-0.331543,0.9311523c-0.2211914,0.2451172-0.5512695,0.3994141-0.9912109,0.4638672
		c0.21875,0.1269531,0.3994141,0.2675781,0.5419922,0.4199219c0.1420898,0.1533203,0.3339844,0.4238281,0.5756836,0.8134766
		l0.6118164,0.9775391h-1.2099609l-0.7314453-1.0898438c-0.2597656-0.3896484-0.4375-0.6357422-0.5332031-0.7373047
		c-0.0957031-0.1005859-0.1972656-0.1708984-0.3041992-0.2080078c-0.1069336-0.0380859-0.2768555-0.0566406-0.5092773-0.0566406
		h-0.2050781v2.0917969H-317.8979492z M-316.8862305,307.0810852h0.7485352c0.4853516,0,0.7885742-0.0205078,0.9091797-0.0615234
		s0.215332-0.1118164,0.2836914-0.2119141s0.1025391-0.2255859,0.1025391-0.3759766
		c0-0.168457-0.0449219-0.3046875-0.1347656-0.4082031c-0.090332-0.1040039-0.2172852-0.1694336-0.3813477-0.1967773
		c-0.0820313-0.0112305-0.328125-0.0170898-0.7382813-0.0170898h-0.7895508V307.0810852z"/>
	<path fill="#FFFFFF" d="M-312.8461914,309.9726868v-5.0107422h3.715332v0.8476563h-2.7036133v1.1108398h2.515625v0.8442383
		h-2.515625v1.3642578h2.7993164v0.84375H-312.8461914z"/>
	<path fill="#FFFFFF" d="M-306.8613281,309.9726868v-2.1083984l-1.8354492-2.9023438h1.1860352l1.1791992,1.9824219
		l1.1552734-1.9824219h1.1655273l-1.8422852,2.9091797v2.1015625H-306.8613281z"/>
</g>
<path id="path25377_4_" inkscape:connector-curvature="0" fill="#656AB1" d="M-299.5,353.5197754
	c0-1.6085205-1.3962402-2.9227905-3.0999146-2.9227905h-23.8001709c-1.7036743,0-3.0999146,1.31427-3.0999146,2.9227905v34.1503906
	c0,1.608551,1.3962402,2.9268188,3.0999146,2.9268188h23.8001709c1.7036743,0,3.0999146-1.3182678,3.0999146-2.9268188V353.5197754z
	"/>
<g>
	<path fill="#FFFFFF" d="M-323.5151367,353.4619446h2.0029297c0.3964844,0,0.6923828,0.0166016,0.8867188,0.0498047
		c0.1953125,0.0332031,0.3691406,0.1015625,0.5234375,0.2070313c0.1533203,0.1044922,0.2817383,0.2441406,0.3842773,0.4179688
		c0.1025391,0.1748047,0.1538086,0.3701172,0.1538086,0.5869141c0,0.234375-0.0634766,0.4501953-0.1894531,0.6455078
		c-0.1269531,0.1962891-0.2983398,0.3427734-0.5146484,0.4414063c0.3051758,0.0888672,0.5400391,0.2402344,0.7041016,0.4541016
		c0.1640625,0.2148438,0.2460938,0.4658203,0.2460938,0.7558594c0,0.2275391-0.0527344,0.4492188-0.1591797,0.6640625
		c-0.1054688,0.2158203-0.2504883,0.3876953-0.4335938,0.5166016c-0.1835938,0.1289063-0.409668,0.2080078-0.6787109,0.2373047
		c-0.168457,0.0185547-0.5751953,0.0302734-1.2202148,0.0341797h-1.7055664V353.4619446z M-322.503418,354.295929v1.1591797
		h0.6630859c0.394043,0,0.6391602-0.0058594,0.7348633-0.0175781c0.1733398-0.0205078,0.309082-0.0800781,0.4086914-0.1796875
		c0.0986328-0.0986328,0.1484375-0.2294922,0.1484375-0.390625c0-0.1552734-0.0429688-0.28125-0.1279297-0.3779297
		c-0.0859375-0.0966797-0.2128906-0.1552734-0.3813477-0.1757813c-0.1000977-0.0117188-0.3886719-0.0175781-0.8647461-0.0175781
		H-322.503418z M-322.503418,356.289093v1.3398438h0.9365234c0.3647461,0,0.5957031-0.0107422,0.6938477-0.03125
		c0.1503906-0.0273438,0.2729492-0.09375,0.3676758-0.2001953c0.0942383-0.1054688,0.1416016-0.2470703,0.1416016-0.4248047
		c0-0.1503906-0.0366211-0.2783203-0.109375-0.3828125c-0.0727539-0.1054688-0.1782227-0.1816406-0.3164063-0.2294922
		c-0.1376953-0.0478516-0.4365234-0.0712891-0.8969727-0.0712891H-322.503418z"/>
	<path fill="#FFFFFF" d="M-318.4360352,358.4726868v-4.9697266h1.0117188v4.1259766h2.515625v0.84375H-318.4360352z"/>
	<path fill="#FFFFFF" d="M-314.1943359,353.4619446h1.0117188v2.7138672c0,0.4306641,0.0126953,0.7099609,0.0375977,0.8378906
		c0.043457,0.2050781,0.1464844,0.3691406,0.3095703,0.4931641c0.1625977,0.125,0.3852539,0.1865234,0.6679688,0.1865234
		c0.2871094,0,0.503418-0.0585938,0.6494141-0.1757813s0.2333984-0.2617188,0.2631836-0.4326172
		s0.0444336-0.4541016,0.0444336-0.8505859v-2.7724609h1.0117188v2.6318359c0,0.6015625-0.0273438,1.0263672-0.0820313,1.2753906
		c-0.0546875,0.2480469-0.1552734,0.4580078-0.3027344,0.6289063c-0.1464844,0.1708984-0.3432617,0.3066406-0.5893555,0.4082031
		s-0.5673828,0.1523438-0.9638672,0.1523438c-0.4785156,0-0.8413086-0.0556641-1.0883789-0.1660156
		c-0.2475586-0.1103516-0.4428711-0.2539063-0.5864258-0.4306641s-0.2382813-0.3613281-0.2836914-0.5556641
		c-0.065918-0.2871094-0.0991211-0.7109375-0.0991211-1.2714844V353.4619446z"/>
	<path fill="#FFFFFF" d="M-309.1323242,358.4726868v-5.0107422h3.715332v0.8476563h-2.7036133v1.1113281h2.515625v0.84375h-2.515625
		v1.3642578h2.7993164v0.84375H-309.1323242z"/>
</g>
<path id="path25377_5_" inkscape:connector-curvature="0" fill="#A379B6" d="M-299.5,402.0197754
	c0-1.6085205-1.3962402-2.9227905-3.0999146-2.9227905h-23.8001709c-1.7036743,0-3.0999146,1.31427-3.0999146,2.9227905v34.1503906
	c0,1.608551,1.3962402,2.9268188,3.0999146,2.9268188h23.8001709c1.7036743,0,3.0999146-1.3182678,3.0999146-2.9268188V402.0197754z
	"/>
<g>
	<path fill="#FFFFFF" d="M-323.6518555,406.9726868v-5.0107422h1.6235352c0.6152344,0,1.0161133,0.0244141,1.203125,0.0751953
		c0.2871094,0.0751953,0.5273438,0.2382813,0.7211914,0.4902344s0.2905273,0.5771484,0.2905273,0.9755859
		c0,0.3076172-0.0556641,0.5664063-0.1674805,0.7763672c-0.1118164,0.2089844-0.253418,0.3740234-0.425293,0.4941406
		c-0.1723633,0.1191406-0.347168,0.1982422-0.5249023,0.2373047c-0.2416992,0.0478516-0.5913086,0.0712891-1.0493164,0.0712891
		h-0.659668v1.890625H-323.6518555z M-322.6401367,402.8096008v1.421875h0.5537109
		c0.3989258,0,0.6655273-0.0263672,0.7998047-0.0791016c0.1342773-0.0517578,0.2397461-0.1337891,0.315918-0.2460938
		c0.0766602-0.1113281,0.1147461-0.2412109,0.1147461-0.3896484c0-0.1816406-0.0537109-0.3320313-0.1606445-0.4511719
		c-0.1069336-0.1181641-0.2426758-0.1923828-0.4067383-0.2216797c-0.1206055-0.0234375-0.3632813-0.0341797-0.7280273-0.0341797
		H-322.6401367z"/>
	<path fill="#FFFFFF" d="M-318.9897461,401.9619446h1.0117188v2.7138672c0,0.4306641,0.0126953,0.7099609,0.0375977,0.8369141
		c0.043457,0.2050781,0.1464844,0.3701172,0.3095703,0.4941406c0.1625977,0.1240234,0.3852539,0.1865234,0.6679688,0.1865234
		c0.2871094,0,0.503418-0.0585938,0.6494141-0.1757813c0.1459961-0.1181641,0.2333984-0.2617188,0.2631836-0.4326172
		s0.0444336-0.4550781,0.0444336-0.8515625v-2.7714844h1.0117188v2.6318359c0,0.6015625-0.0273438,1.0263672-0.0820313,1.2744141
		c-0.0546875,0.2490234-0.1552734,0.4580078-0.3027344,0.6289063c-0.1464844,0.1708984-0.3432617,0.3076172-0.5893555,0.4091797
		c-0.2460938,0.1005859-0.5673828,0.1513672-0.9638672,0.1513672c-0.4785156,0-0.8413086-0.0546875-1.0883789-0.1650391
		c-0.2475586-0.1113281-0.4428711-0.2548828-0.5864258-0.4306641c-0.1435547-0.1767578-0.2382813-0.3623047-0.2836914-0.5556641
		c-0.065918-0.2871094-0.0991211-0.7109375-0.0991211-1.2714844V401.9619446z"/>
	<path fill="#FFFFFF" d="M-313.9243164,406.9726868v-5.0107422h2.1293945c0.5356445,0,0.9243164,0.0449219,1.1674805,0.1347656
		c0.2421875,0.0898438,0.4365234,0.25,0.5825195,0.4804688c0.1459961,0.2294922,0.21875,0.4931641,0.21875,0.7890625
		c0,0.3759766-0.1103516,0.6865234-0.331543,0.9316406s-0.5512695,0.3994141-0.9912109,0.4628906
		c0.21875,0.1279297,0.3994141,0.2675781,0.5419922,0.4208984c0.1420898,0.1523438,0.3339844,0.4238281,0.5756836,0.8134766
		l0.6118164,0.9775391h-1.2099609l-0.7314453-1.0908203c-0.2597656-0.3896484-0.4375-0.6347656-0.5332031-0.7363281
		s-0.1972656-0.1708984-0.3041992-0.2080078c-0.1069336-0.0380859-0.2768555-0.0566406-0.5092773-0.0566406h-0.2050781v2.0917969
		H-313.9243164z M-312.9125977,404.0810852h0.7485352c0.4853516,0,0.7885742-0.0205078,0.9091797-0.0615234
		s0.215332-0.1123047,0.2836914-0.2119141c0.0683594-0.1005859,0.1025391-0.2255859,0.1025391-0.3759766
		c0-0.1689453-0.0449219-0.3046875-0.1347656-0.4082031c-0.090332-0.1044922-0.2172852-0.1699219-0.3813477-0.1972656
		c-0.0820313-0.0107422-0.328125-0.0166016-0.7382813-0.0166016h-0.7895508V404.0810852z"/>
	<path fill="#FFFFFF" d="M-308.8725586,406.9726868v-5.0107422h1.6235352c0.6152344,0,1.0161133,0.0244141,1.203125,0.0751953
		c0.2871094,0.0751953,0.5273438,0.2382813,0.7211914,0.4902344s0.2905273,0.5771484,0.2905273,0.9755859
		c0,0.3076172-0.0556641,0.5664063-0.1674805,0.7763672c-0.1118164,0.2089844-0.253418,0.3740234-0.425293,0.4941406
		c-0.1723633,0.1191406-0.347168,0.1982422-0.5249023,0.2373047c-0.2416992,0.0478516-0.5913086,0.0712891-1.0493164,0.0712891
		h-0.659668v1.890625H-308.8725586z M-307.8608398,402.8096008v1.421875h0.5537109
		c0.3989258,0,0.6655273-0.0263672,0.7998047-0.0791016c0.1342773-0.0517578,0.2397461-0.1337891,0.315918-0.2460938
		c0.0766602-0.1113281,0.1147461-0.2412109,0.1147461-0.3896484c0-0.1816406-0.0537109-0.3320313-0.1606445-0.4511719
		c-0.1069336-0.1181641-0.2426758-0.1923828-0.4067383-0.2216797c-0.1206055-0.0234375-0.3632813-0.0341797-0.7280273-0.0341797
		H-307.8608398z"/>
</g>
<path id="path25377_7_" inkscape:connector-curvature="0" fill="#333333" d="M-299.5,450.5197754
	c0-1.6085205-1.3962402-2.9227905-3.0999146-2.9227905h-23.8001709c-1.7036743,0-3.0999146,1.31427-3.0999146,2.9227905v34.1503906
	c0,1.608551,1.3962402,2.9268188,3.0999146,2.9268188h23.8001709c1.7036743,0,3.0999146-1.3182678,3.0999146-2.9268188V450.5197754z
	"/>
<g>
	<path fill="#FFFFFF" d="M-317.3457031,454.8369446c0.2485352,0.1777344,0.5185547,0.3183594,0.8100586,0.4238281
		l-0.3725586,0.7138672c-0.152832-0.0449219-0.3017578-0.1083984-0.4477539-0.1875
		c-0.0317383-0.0166016-0.2563477-0.1640625-0.6733398-0.4443359c-0.328125,0.1435547-0.6914063,0.2148438-1.090332,0.2148438
		c-0.7700195,0-1.3735352-0.2265625-1.8095703-0.6796875c-0.4365234-0.4541016-0.6547852-1.0908203-0.6547852-1.9111328
		c0-0.8173828,0.21875-1.4541016,0.65625-1.9082031c0.4375-0.4550781,1.03125-0.6826172,1.7807617-0.6826172
		c0.7426758,0,1.3320313,0.2275391,1.7670898,0.6826172c0.4350586,0.4541016,0.652832,1.0908203,0.652832,1.9082031
		c0,0.4335938-0.0605469,0.8134766-0.1811523,1.1416016C-316.9995117,454.3594055-317.1450195,454.601593-317.3457031,454.8369446z
		 M-318.1591797,454.2656555c0.1298828-0.1523438,0.2270508-0.3369141,0.2924805-0.5537109
		c0.0644531-0.2158203,0.097168-0.4648438,0.097168-0.7451172c0-0.578125-0.1274414-1.0107422-0.3828125-1.296875
		s-0.5888672-0.4287109-1.0014648-0.4287109s-0.7470703,0.1435547-1.0029297,0.4306641
		c-0.2568359,0.2871094-0.3847656,0.71875-0.3847656,1.2949219c0,0.5859375,0.1279297,1.0244141,0.3847656,1.3144531
		c0.2558594,0.2910156,0.5800781,0.4355469,0.972168,0.4355469c0.1459961,0,0.2836914-0.0234375,0.4135742-0.0712891
		c-0.2050781-0.1347656-0.4135742-0.2392578-0.6254883-0.3144531l0.2836914-0.578125
		C-318.7802734,453.867218-318.4624023,454.0381165-318.1591797,454.2656555z"/>
	<path fill="#FFFFFF" d="M-315.9238281,455.4726868v-5.0107422h0.984375l2.0507813,3.3457031v-3.3457031h0.9399414v5.0107422
		h-1.0151367l-2.0200195-3.2675781v3.2675781H-315.9238281z"/>
	<path fill="#FFFFFF" d="M-309.7509766,455.4726868v-4.1630859h-1.4868164v-0.8476563h3.9819336v0.8476563h-1.4833984v4.1630859
		H-309.7509766z"/>
</g>
<g id="XMLID_17_">
	<path fill="#212121" d="M-322.9614258,125.2207336v11.9970703h-2.7597656v-4.9482422h-3.7441406v4.9482422h-2.7597656v-11.9970703
		h2.7597656v4.6757813h3.7441406v-4.6757813H-322.9614258z"/>
</g>
<g id="XMLID_16_">
	<path fill="#212121" d="M-329.4208984,136.967804v11.9970703h-2.8037109V136.967804H-329.4208984z"/>
</g>
<g id="XMLID_15_">
	<path fill="#212121" d="M-319.4829102,146.0932922h-1.0742188l-3.8486328-5.8857422
		c-0.097168-0.1474609-0.1772461-0.3017578-0.2397461-0.4638672h-0.03125
		c0.0273438,0.1582031,0.0415039,0.4960938,0.0415039,1.0146484v5.3349609h-0.8759766v-7.3847656h1.1367188l3.7441406,5.7939453
		c0.15625,0.2402344,0.2573242,0.4042969,0.3027344,0.4941406h0.0205078
		c-0.034668-0.2128906-0.0522461-0.5751953-0.0522461-1.0869141v-5.2011719h0.8764648V146.0932922z"/>
	<path fill="#212121" d="M-314.5083008,146.2173157c-1.0605469,0-1.909668-0.3457031-2.5473633-1.0351563
		c-0.6381836-0.6904297-0.9570313-1.5878906-0.9570313-2.6933594c0-1.1875,0.3251953-2.1357422,0.9750977-2.8427734
		s1.534668-1.0605469,2.6542969-1.0605469c1.0327148,0,1.8642578,0.3427734,2.4951172,1.0292969
		c0.6313477,0.6875,0.9467773,1.5849609,0.9467773,2.6933594c0,1.2050781-0.3232422,2.1582031-0.9702148,2.8583984
		C-312.5581055,145.8667297-313.4238281,146.2173157-314.5083008,146.2173157z M-314.4458008,139.3677063
		c-0.7856445,0-1.4238281,0.2802734-1.9140625,0.8398438s-0.7348633,1.2939453-0.7348633,2.2041016
		c0,0.9091797,0.2387695,1.6416016,0.7167969,2.1962891c0.4780273,0.5537109,1.1010742,0.8310547,1.8696289,0.8310547
		c0.8203125,0,1.4667969-0.2636719,1.9399414-0.7929688c0.4726563-0.5283203,0.7089844-1.2685547,0.7089844-2.21875
		c0-0.9755859-0.2294922-1.7285156-0.6884766-2.2607422S-313.6391602,139.3677063-314.4458008,139.3677063z"/>
	<path fill="#212121" d="M-308.5947266,146.0932922h-0.8759766v-7.3847656h0.8759766V146.0932922z"/>
	<path fill="#212121" d="M-306.9785156,145.7944641v-1.0195313c0.1181641,0.1035156,0.2597656,0.1953125,0.4243164,0.2783203
		c0.1660156,0.0820313,0.3398438,0.1513672,0.5214844,0.2080078c0.1835938,0.0566406,0.3671875,0.1005859,0.5507813,0.1318359
		c0.1835938,0.0302734,0.3554688,0.0458984,0.5117188,0.0458984c0.5390625,0,0.9414063-0.0986328,1.2070313-0.2958984
		s0.3984375-0.4814453,0.3984375-0.8525391c0-0.1982422-0.0449219-0.3720703-0.1328125-0.5195313
		s-0.2109375-0.2822266-0.3671875-0.4042969s-0.3417969-0.2382813-0.5566406-0.3505859
		c-0.2128906-0.1113281-0.4433594-0.2285156-0.6894531-0.3525391c-0.2617188-0.1298828-0.5039063-0.2626953-0.7304688-0.3964844
		s-0.421875-0.28125-0.5898438-0.4423828c-0.1660156-0.1621094-0.2978516-0.3447266-0.3935547-0.5488281
		s-0.1430664-0.4433594-0.1430664-0.71875c0-0.3359375,0.074707-0.6289063,0.2241211-0.8779297
		c0.1484375-0.2480469,0.3457031-0.453125,0.5898438-0.6152344c0.2421875-0.1611328,0.5195313-0.28125,0.8320313-0.3603516
		c0.3105469-0.0791016,0.6269531-0.1181641,0.9511719-0.1181641c0.7363281,0,1.2734375,0.0869141,1.6113281,0.2626953v0.9726563
		c-0.4414063-0.3017578-1.0078125-0.453125-1.7011719-0.453125c-0.1914063,0-0.3808594,0.0205078-0.5722656,0.0595703
		s-0.3613281,0.1035156-0.5117188,0.1933594c-0.1503906,0.0888672-0.2714844,0.2041016-0.3652344,0.3447266
		s-0.140625,0.3125-0.140625,0.5146484c0,0.1894531,0.0351563,0.3525391,0.1074219,0.4892578
		c0.0703125,0.1376953,0.1757813,0.2626953,0.3144531,0.3759766c0.140625,0.1132813,0.3085938,0.2236328,0.5097656,0.3300781
		c0.1992188,0.1064453,0.4296875,0.2226563,0.6894531,0.3496094c0.2675781,0.1308594,0.5214844,0.2675781,0.7617188,0.4121094
		s0.4511719,0.3037109,0.6308594,0.4794922c0.1816406,0.1748047,0.3242188,0.3681641,0.4316406,0.5810547
		c0.1054688,0.2128906,0.1582031,0.4570313,0.1582031,0.7314453c0,0.3642578-0.0722656,0.671875-0.2167969,0.9248047
		c-0.1445313,0.2519531-0.3378906,0.4570313-0.5839844,0.6152344c-0.2441406,0.1582031-0.5273438,0.2714844-0.8476563,0.3417969
		c-0.3183594,0.0703125-0.65625,0.1064453-1.0117188,0.1064453c-0.1171875,0-0.2636719-0.0097656-0.4375-0.0283203
		c-0.1738281-0.0195313-0.3515625-0.046875-0.53125-0.0830078c-0.1816406-0.0361328-0.3535156-0.0800781-0.5136719-0.1337891
		C-306.7514648,145.9194641-306.8813477,145.8598938-306.9785156,145.7944641z"/>
	<path fill="#212121" d="M-296.9926758,146.0932922h-3.9628906v-7.3847656h3.7958984v0.7832031h-2.9199219v2.4560547h2.7011719
		v0.7773438h-2.7011719v2.5849609h3.0869141V146.0932922z"/>
</g>
</svg>
